<svg width="147" height="23" viewBox="0 0 147 23" fill="none" xmlns="http://www.w3.org/2000/svg">
<path d="M144.692 10.5407V5.78857H146.875V19.0909H144.692V17.7882C144.104 18.7607 143.077 19.3295 141.756 19.3295C139.407 19.3295 137.462 17.3295 137.462 14.1553C137.462 10.9994 139.407 8.99949 141.756 8.99949C143.077 8.99949 144.104 9.56828 144.692 10.5407ZM144.783 14.1553C144.783 11.8801 143.646 10.7793 142.233 10.7793C140.765 10.7793 139.738 12.1003 139.738 14.1553C139.738 16.2653 140.765 17.5497 142.233 17.5497C143.646 17.5497 144.783 16.4305 144.783 14.1553Z" fill="white"/>
<path d="M133.5 19.0909V17.7331C132.931 18.7606 131.922 19.3294 130.583 19.3294C128.234 19.3294 127.28 17.7882 127.28 15.4396V9.2196H129.463V14.9075C129.463 16.2469 129.647 17.5496 131.28 17.5496C132.913 17.5496 133.5 16.2653 133.5 14.4855V9.2196H135.683V19.0909H133.5Z" fill="white"/>
<path d="M118.146 14.1737C118.146 16.4488 119.357 17.5497 120.752 17.5497C122.146 17.5497 123.357 16.4488 123.357 14.1737C123.357 11.8985 122.146 10.7793 120.752 10.7793C119.357 10.7793 118.146 11.8985 118.146 14.1737ZM120.752 8.99951C123.155 8.99951 125.614 10.6141 125.614 14.1737C125.614 17.7516 123.155 19.3295 120.752 19.3295C118.348 19.3295 115.89 17.7516 115.89 14.1737C115.89 10.6141 118.348 8.99951 120.752 8.99951Z" fill="white"/>
<path d="M114.093 5.78857V19.0909H111.909V5.78857H114.093Z" fill="white"/>
<path d="M107.825 14.6691H110.064C109.495 17.6598 107.403 19.3295 104.321 19.3295C100.431 19.3295 98.1742 16.5773 98.1742 12.3939C98.1742 8.21052 100.559 5.55005 104.431 5.55005C107.385 5.55005 109.495 7.21973 110.027 10.2105H107.789C107.367 8.39401 106.101 7.45825 104.358 7.45825C102.247 7.45825 100.578 9.18297 100.578 12.3939C100.578 15.6232 102.211 17.4213 104.339 17.4213C106.156 17.4213 107.403 16.5039 107.825 14.6691Z" fill="white"/>
<path d="M94.8269 19.2194C94.4233 19.2194 94.0808 19.0848 93.7994 18.8157C93.5181 18.5344 93.3774 18.1919 93.3774 17.7882C93.3774 17.3846 93.5181 17.0421 93.7994 16.7608C94.0808 16.4794 94.4233 16.3387 94.8269 16.3387C95.2428 16.3387 95.5914 16.4794 95.8728 16.7608C96.1541 17.0421 96.2948 17.3846 96.2948 17.7882C96.2948 18.1919 96.1541 18.5344 95.8728 18.8157C95.5914 19.0848 95.2428 19.2194 94.8269 19.2194Z" fill="white"/>
<path d="M84.0303 14.1737C84.0303 16.4488 85.2412 17.5497 86.6357 17.5497C88.0301 17.5497 89.2411 16.4488 89.2411 14.1737C89.2411 11.8985 88.0301 10.7793 86.6357 10.7793C85.2412 10.7793 84.0303 11.8985 84.0303 14.1737ZM86.6357 8.99951C89.0393 8.99951 91.4979 10.6141 91.4979 14.1737C91.4979 17.7516 89.0393 19.3295 86.6357 19.3295C84.2321 19.3295 81.7734 17.7516 81.7734 14.1737C81.7734 10.6141 84.2321 8.99951 86.6357 8.99951Z" fill="white"/>
<path d="M73.2732 14.1553C73.2732 16.4305 74.3924 17.5497 75.8236 17.5497C77.3648 17.5497 78.2639 16.2654 78.2639 14.1553C78.2639 12.082 77.3648 10.7793 75.8236 10.7793C74.3924 10.7793 73.2732 11.8802 73.2732 14.1553ZM71.1815 9.21969H73.3649V10.5408C73.9521 9.5683 74.9796 8.99951 76.3006 8.99951C78.7226 8.99951 80.5391 10.9995 80.5391 14.1553C80.5391 17.3296 78.7226 19.3295 76.3006 19.3295C74.9796 19.3295 73.9521 18.7607 73.3649 17.7883V22.3019H71.1815V9.21969Z" fill="white"/>
<path d="M68.6255 9.2196V19.0909H66.4421V10.9443H62.222V19.0909H60.0386V9.2196H68.6255Z" fill="white"/>
<path d="M53.7552 8.99951C55.9202 8.99951 57.7917 10.4123 58.177 12.5957H56.0487C55.8468 11.5499 54.9478 10.816 53.7552 10.816C52.379 10.816 51.1681 11.8251 51.1681 14.1553C51.1681 16.5039 52.4157 17.513 53.7001 17.513C54.7826 17.513 55.8285 17.036 56.1221 15.7149H58.2504C57.8101 18.0268 55.7734 19.3295 53.6634 19.3295C50.8011 19.3295 48.9113 17.1094 48.9113 14.1737C48.9113 11.238 50.8011 8.99951 53.7552 8.99951Z" fill="white"/>
<path d="M35.9495 19.091L40.9035 5.78857H43.3621L48.3528 19.091H45.8024L44.7566 16.1369H39.3622L38.3347 19.091H35.9495ZM42.041 8.48575L40.0411 14.192H44.0593L42.041 8.48575Z" fill="white"/>
<path fill-rule="evenodd" clip-rule="evenodd" d="M19.4902 6.68854C19.4904 6.6904 19.4904 6.69228 19.4902 6.69413C18.2321 10.3862 16.6619 14.7029 15.5661 18.556C15.5303 18.6819 15.4641 18.7963 15.3718 18.8833C15.2795 18.9703 15.1539 19.0208 15.0217 19.0239H7.10046C5.2173 19.0239 3.41127 18.3368 2.07968 17.1138C0.748085 15.8907 0 14.2319 0 12.5022C0 10.7725 0.748085 9.1137 2.07968 7.89064C3.41127 6.66758 5.2173 5.98047 7.10046 5.98047H19.0651C19.1984 5.98218 19.3256 6.03202 19.4192 6.11919C19.5128 6.20637 19.5652 6.32388 19.5652 6.44631C19.5646 6.53182 19.5387 6.61556 19.4902 6.68854Z" fill="#FF7188"/>
<path fill-rule="evenodd" clip-rule="evenodd" d="M22.4738 18.5592C22.4337 18.6794 22.3972 18.7726 22.3133 18.8704C22.2295 18.9682 22.1199 19.018 22.0108 19.0239H16.1687C14.0202 18.9518 11.9818 17.9716 10.4854 16.2909C8.98895 14.6101 8.1521 12.3609 8.1521 10.0198C8.1521 7.67859 8.98895 5.42938 10.4854 3.74864C11.9818 2.0679 14.0202 1.08768 16.1687 1.01562H28.1146C28.2257 1.01711 28.3347 1.06797 28.4123 1.15462C28.4899 1.24127 28.5339 1.36112 28.5325 1.48217C28.5329 1.52499 28.528 1.56746 28.5178 1.60845C28.4123 1.95724 28.2804 2.30651 28.1651 2.64965C25.9147 9.34963 25.083 10.7587 22.4738 18.5592Z" fill="#3AE7BC"/>
<path fill-rule="evenodd" clip-rule="evenodd" d="M15.2889 18.9464C13.4665 18.6763 11.7698 17.7462 10.4781 16.2909C8.98636 14.6102 8.1521 12.361 8.1521 10.0198C8.1521 8.60468 8.4569 7.22316 9.02748 5.98047H19.0651C19.1984 5.98218 19.3256 6.03202 19.4192 6.11919C19.5421 6.23369 19.5922 6.40512 19.5494 6.55952C19.5294 6.63131 19.4972 6.72195 19.461 6.82409C19.4423 6.87666 19.4225 6.93228 19.4028 6.98994C19.0732 7.95369 18.7386 8.9113 18.4046 9.86688C17.4068 12.7223 16.4153 15.5597 15.5822 18.4892C15.5464 18.6151 15.4641 18.7963 15.3718 18.8833C15.3465 18.9072 15.3187 18.9283 15.2889 18.9464Z" fill="#2E57DB"/>
</svg>
